<?xml version="1.0" encoding="utf-8"?>
<!-- Generator: Adobe Illustrator 15.1.0, SVG Export Plug-In  -->
<!DOCTYPE svg PUBLIC "-//W3C//DTD SVG 1.1//EN" "http://www.w3.org/Graphics/SVG/1.1/DTD/svg11.dtd" [
	<!ENTITY ns_flows "http://ns.adobe.com/Flows/1.0/">
]>
<svg version="1.1"
	 xmlns="http://www.w3.org/2000/svg" xmlns:xlink="http://www.w3.org/1999/xlink" xmlns:a="http://ns.adobe.com/AdobeSVGViewerExtensions/3.0/"
	 x="0px" y="0px" width="168px" height="168px" viewBox="0 0 168 168" enable-background="new 0 0 168 168" xml:space="preserve">
<defs>
</defs>
<rect id="_x31_3_1_" y="18.659" fill="#388FB8" width="149.162" height="149.025"/>
<polygon id="_x31_2_1_" fill="#1B4A78" points="168,149.025 168,0 149.162,18.659 149.162,167.684 "/>
<polygon id="_x31_1_1_" fill="#61ACD1" points="25.913,0.003 0,18.657 149.162,18.657 168,0.003 "/>
<polygon id="_x31_0_1_" fill="#FFFFFF" points="77.809,71.499 77.809,39.259 83.28,39.259 75.208,27.086 67.136,39.259 
	72.606,39.259 72.606,71.499 "/>
<polygon id="_x39__1_" fill="#FFFFFF" points="61.36,76.157 38.561,53.358 42.429,49.491 28.116,46.59 31.013,60.907 34.879,57.04 
	57.678,79.838 "/>
<polygon id="_x38__1_" fill="#FFFFFF" points="53.02,91.085 20.775,91.085 20.775,85.615 8.607,93.687 20.775,101.753 
	20.775,96.288 53.02,96.288 "/>
<polygon id="_x37__1_" fill="#FFFFFF" points="57.678,107.534 34.879,130.333 31.013,126.467 28.116,140.778 42.429,137.881 
	38.561,134.01 61.36,111.211 "/>
<polygon id="_x36__1_" fill="#FFFFFF" points="72.606,115.868 72.606,148.114 67.136,148.114 75.208,160.287 83.28,148.114 
	77.809,148.114 77.809,115.868 "/>
<polygon id="_x35__1_" fill="#FFFFFF" points="89.056,111.211 111.855,134.01 107.988,137.881 122.299,140.778 119.403,126.467 
	115.536,130.333 92.738,107.534 "/>
<polygon id="_x34__1_" fill="#FFFFFF" points="97.396,96.288 129.641,96.288 129.641,101.753 141.809,93.687 129.641,85.615 
	129.641,91.085 97.396,91.085 "/>
<polygon id="_x33__1_" fill="#FFFFFF" points="92.738,79.838 115.536,57.04 119.403,60.907 122.299,46.59 107.988,49.491 
	111.855,53.358 89.056,76.157 "/>
<path id="_x32__1_" fill="#FFFFFF" d="M94.996,120.979c15.217-10.651,18.915-31.623,8.258-46.834
	C92.607,58.927,71.63,55.229,56.418,65.887c-15.211,10.652-18.909,31.624-8.257,46.835
	C58.813,127.934,79.784,131.632,94.996,120.979z"/>
<path id="_x31__1_" fill="#388FB8" d="M75.738,128.066c-11.307,0-21.923-5.521-28.4-14.77c-5.306-7.575-7.343-16.767-5.736-25.877
	c1.606-9.111,6.663-17.05,14.24-22.356c5.854-4.101,12.714-6.27,19.838-6.27c11.308,0,21.924,5.523,28.396,14.774
	c5.31,7.576,7.348,16.766,5.741,25.877c-1.607,9.111-6.665,17.051-14.245,22.357C89.718,125.9,82.859,128.066,75.738,128.066z
	 M75.68,60.803c-6.709,0-13.171,2.042-18.686,5.906c-7.137,4.998-11.901,12.477-13.415,21.059
	c-1.513,8.583,0.406,17.24,5.404,24.377c6.101,8.712,16.102,13.912,26.754,13.912c6.708,0,13.168-2.041,18.683-5.901
	c7.139-4.998,11.904-12.477,13.419-21.06c1.513-8.582-0.408-17.239-5.409-24.376C96.333,66.005,86.333,60.803,75.68,60.803z"/>
</svg>
