<?xml version="1.0" encoding="UTF-8" standalone="no"?>
<!-- Created with Inkscape (http://www.inkscape.org/) -->

<svg
   xmlns:dc="http://purl.org/dc/elements/1.1/"
   xmlns:cc="http://creativecommons.org/ns#"
   xmlns:rdf="http://www.w3.org/1999/02/22-rdf-syntax-ns#"
   xmlns:svg="http://www.w3.org/2000/svg"
   xmlns="http://www.w3.org/2000/svg"
   xmlns:xlink="http://www.w3.org/1999/xlink"
   xmlns:sodipodi="http://sodipodi.sourceforge.net/DTD/sodipodi-0.dtd"
   xmlns:inkscape="http://www.inkscape.org/namespaces/inkscape"
   width="138.69928"
   height="94.504837"
   viewBox="0 0 138.69928 94.50484"
   id="svg13653"
   sodipodi:version="0.32"
   inkscape:version="0.48.5 r10040"
   sodipodi:docname="Router_clip_art.svg"
   version="1.0">
  <metadata
     id="metadata26">
    <rdf:RDF>
      <cc:Work
         rdf:about="">
        <dc:format>image/svg+xml</dc:format>
        <dc:type
           rdf:resource="http://purl.org/dc/dcmitype/StillImage" />
      </cc:Work>
    </rdf:RDF>
  </metadata>
  <defs
     id="defs13655">
    <linearGradient
       id="linearGradient12828">
      <stop
         style="stop-color:#000000;stop-opacity:0.45882353;"
         offset="0"
         id="stop3789" />
      <stop
         id="stop3797"
         offset="0"
         style="stop-color:#0e0f21;stop-opacity:0.37692308;" />
      <stop
         id="stop3793"
         offset="1"
         style="stop-color:#131230;stop-opacity:0;" />
    </linearGradient>
    <radialGradient
       inkscape:collect="always"
       xlink:href="#linearGradient12828"
       id="radialGradient13651"
       cx="328.57144"
       cy="602.7193"
       fx="328.57144"
       fy="602.7193"
       r="147.14285"
       gradientTransform="matrix(1,0,0,0.177184,0,495.9268)"
       gradientUnits="userSpaceOnUse" />
    <linearGradient
       id="linearGradient12001">
      <stop
         style="stop-color:#1b4a78;stop-opacity:1;"
         offset="0"
         id="stop12003" />
      <stop
         style="stop-color:#5dacd1;stop-opacity:1;"
         offset="1"
         id="stop12005" />
    </linearGradient>
    <linearGradient
       inkscape:collect="always"
       xlink:href="#linearGradient12001"
       id="linearGradient13633"
       gradientUnits="userSpaceOnUse"
       gradientTransform="matrix(0.471308,0,0,0.471308,118.8781,123.5182)"
       x1="175.71875"
       y1="737.01562"
       x2="470.00089"
       y2="737.01562" />
    <radialGradient
       inkscape:collect="always"
       xlink:href="#linearGradient12828"
       id="radialGradient13688"
       gradientUnits="userSpaceOnUse"
       gradientTransform="matrix(1,0,0,0.177184,0,495.9268)"
       cx="328.57144"
       cy="602.7193"
       fx="328.57144"
       fy="602.7193"
       r="147.14285" />
    <linearGradient
       inkscape:collect="always"
       xlink:href="#linearGradient12001"
       id="linearGradient13690"
       gradientUnits="userSpaceOnUse"
       gradientTransform="matrix(0.471308,0,0,0.471308,118.8781,123.5182)"
       x1="175.71875"
       y1="737.01562"
       x2="470.00089"
       y2="737.01562" />
    <linearGradient
       inkscape:collect="always"
       xlink:href="#linearGradient12001"
       id="linearGradient3010"
       gradientUnits="userSpaceOnUse"
       gradientTransform="matrix(0.471308,0,0,0.471308,-62.94358,-204.62421)"
       x1="175.71875"
       y1="737.01562"
       x2="470.00089"
       y2="737.01562" />
    <radialGradient
       inkscape:collect="always"
       xlink:href="#linearGradient12828"
       id="radialGradient3787"
       cx="328.57144"
       cy="602.7193"
       fx="328.57144"
       fy="602.7193"
       r="147.14285"
       gradientTransform="matrix(1,0,0,0.17718447,0,495.9268)"
       gradientUnits="userSpaceOnUse" />
  </defs>
  <sodipodi:namedview
     id="base"
     pagecolor="#ffffff"
     bordercolor="#666666"
     borderopacity="1.0"
     inkscape:pageopacity="0.0"
     inkscape:pageshadow="2"
     inkscape:zoom="3.959798"
     inkscape:cx="91.16776"
     inkscape:cy="59.440461"
     inkscape:document-units="px"
     inkscape:current-layer="layer1"
     inkscape:window-width="1301"
     inkscape:window-height="744"
     inkscape:window-x="65"
     inkscape:window-y="24"
     showgrid="false"
     inkscape:window-maximized="1"
     fit-margin-top="0"
     fit-margin-left="0"
     fit-margin-right="0"
     fit-margin-bottom="0" />
  <g
     inkscape:label="Capa 1"
     inkscape:groupmode="layer"
     id="layer1"
     transform="translate(-19.874768,-83.417501)">
    <path
       inkscape:connector-curvature="0"
       style="fill:url(#linearGradient3010);fill-opacity:1;stroke:none"
       d="m 19.89118,107.56487 0,0.29457 c 0.006,-0.0975 0.0206,-0.19729 0.0295,-0.29457 l -0.0295,0 z m 138.62351,0 c 0.0302,0.33044 0.0589,0.66821 0.0589,1.00153 l 0,-1.00153 -0.0589,0 z m 0.0589,1.00153 c -1e-5,15.05224 -31.07495,27.26223 -69.35594,27.26223 -37.68286,1e-5 -68.3765,-11.82771 -69.32649,-26.55527 l 0,40.67979 c -0.0151,0.23376 -0.0147,0.45704 -0.0147,0.69223 0,0.22546 8.7e-4,0.45335 0.0147,0.67751 0.91151,14.74102 31.61889,26.59945 69.32649,26.59945 37.7076,0 68.41498,-11.85843 69.32648,-26.59945 l 0.0295,0 0,-0.50077 c 9.5e-4,-0.0587 0,-0.11794 0,-0.17674 0,-0.0588 9.4e-4,-0.11803 0,-0.17674 l 0,-41.90224 z"
       id="path13626" />
    <path
       sodipodi:type="arc"
       style="fill:#3a78a0;fill-opacity:1;stroke:none"
       id="path11090"
       sodipodi:cx="328.57144"
       sodipodi:cy="602.7193"
       sodipodi:rx="147.14285"
       sodipodi:ry="26.071428"
       d="m 475.71429,602.7193 c 0,14.39885 -65.87809,26.07143 -147.14285,26.07143 -81.26475,0 -147.14285,-11.67258 -147.14285,-26.07143 0,-14.39885 65.8781,-26.07143 147.14285,-26.07143 81.26476,0 147.14285,11.67258 147.14285,26.07143 z"
       transform="matrix(0.471308,0,0,1.045917,-65.63398,-519.70831)" />
    <g
       id="g13565"
       style="fill:#f2fdff;fill-opacity:0.71171169"
       transform="matrix(0.84958,0.276715,-0.703617,0.334119,261.38112,-194.91401)">
      <path
         inkscape:connector-curvature="0"
         id="path13507"
         d="m 328.66945,592.8253 -5.97867,10.35298 -5.97867,10.35297 6.18436,0 0,21.24074 11.53226,0 0,-21.24074 6.18435,0 -5.97867,-10.35297 -5.96496,-10.35298 z"
         style="fill:#f2fdff;fill-opacity:0.71171169;stroke:none" />
      <path
         inkscape:connector-curvature="0"
         id="path13509"
         d="m 328.66945,687.10951 -5.97867,-10.35298 -5.97867,-10.35297 6.18436,0 0,-21.24074 11.53226,0 0,21.24074 6.18435,0 -5.97867,10.35297 -5.96496,10.35298 z"
         style="fill:#f2fdff;fill-opacity:0.71171169;stroke:none" />
      <path
         inkscape:connector-curvature="0"
         id="path13511"
         d="m 333.74751,639.82449 10.35297,-5.97867 10.35297,-5.97867 0,6.18436 21.24074,0 0,11.53225 -21.24074,0 0,6.18436 -10.35297,-5.97867 -10.35297,-5.96496 z"
         style="fill:#f2fdff;fill-opacity:0.71171169;stroke:none" />
      <path
         inkscape:connector-curvature="0"
         id="path13513"
         d="m 323.35667,639.82449 -10.35297,-5.97867 -10.35298,-5.97867 0,6.18436 -21.24073,0 0,11.53225 21.24073,0 0,6.18436 10.35298,-5.97867 10.35297,-5.96496 z"
         style="fill:#f2fdff;fill-opacity:0.71171169;stroke:none" />
    </g>
  </g>
</svg>
