<?xml version="1.0" encoding="utf-8"?>
<!-- Generator: Adobe Illustrator 15.1.0, SVG Export Plug-In  -->
<!DOCTYPE svg PUBLIC "-//W3C//DTD SVG 1.1//EN" "http://www.w3.org/Graphics/SVG/1.1/DTD/svg11.dtd" [
	<!ENTITY ns_flows "http://ns.adobe.com/Flows/1.0/">
]>
<svg version="1.1"
	 xmlns="http://www.w3.org/2000/svg" xmlns:xlink="http://www.w3.org/1999/xlink" xmlns:a="http://ns.adobe.com/AdobeSVGViewerExtensions/3.0/"
	 x="0px" y="0px" width="168px" height="82px" viewBox="0 0 168 82" enable-background="new 0 0 168 82" xml:space="preserve">
<defs>
</defs>
<rect id="_x37__1_" x="0.3" y="41.1" fill="#388FB8" width="125.7" height="40.9"/>
<polygon id="_x36__1_" fill="#61ACD1" points="0,41.3 50.8,0 168,0 125.9,41.3 "/>
<polygon id="_x35__1_" fill="#1B4A78" points="125.9,82 167.9,36.5 167.9,0.1 125.9,41.2 "/>
<polygon id="_x34__1_" fill="#F5F5F5" points="73.2,30.7 40.2,30.7 44.6,27.1 27.5,32.5 31.7,37.9 36,34.2 69.1,34.2 "/>
<polygon id="_x33__1_" fill="#F5F5F5" points="81.8,23.5 114.9,23.5 119.2,19.8 123.4,25.2 106.3,30.7 110.7,27 77.7,27 "/>
<polygon id="_x32__1_" fill="#F5F5F5" points="92.8,14.3 59.7,14.3 64.1,10.6 47,16 51.2,21.5 55.6,17.8 88.6,17.8 "/>
<polygon id="_x31__1_" fill="#F5F5F5" points="101.4,7 134.4,7 138.8,3.4 143,8.8 125.9,14.2 130.2,10.5 97.2,10.5 "/>
</svg>
